<mxfile host="app.diagrams.net" agent="Mozilla/5.0 (Windows NT 10.0; Win64; x64) AppleWebKit/537.36 (KHTML, like Gecko) Chrome/131.0.0.0 Safari/537.36" version="25.0.3">
  <diagram name="Trang-1" id="HeTqGXLJjf3NgZMoGS2s">
    <mxGraphModel dx="690" dy="388" grid="1" gridSize="10" guides="1" tooltips="1" connect="1" arrows="1" fold="1" page="1" pageScale="1" pageWidth="827" pageHeight="1169" math="0" shadow="0">
      <root>
        <mxCell id="0" />
        <mxCell id="1" parent="0" />
        <mxCell id="3unbCcVTycQeQUq4H99n-10" style="edgeStyle=orthogonalEdgeStyle;rounded=0;orthogonalLoop=1;jettySize=auto;html=1;entryX=0.5;entryY=0;entryDx=0;entryDy=0;" edge="1" parent="1" source="3unbCcVTycQeQUq4H99n-1" target="3unbCcVTycQeQUq4H99n-2">
          <mxGeometry relative="1" as="geometry" />
        </mxCell>
        <mxCell id="3unbCcVTycQeQUq4H99n-1" value="START" style="ellipse;whiteSpace=wrap;html=1;" vertex="1" parent="1">
          <mxGeometry x="354" y="40" width="120" height="80" as="geometry" />
        </mxCell>
        <mxCell id="3unbCcVTycQeQUq4H99n-9" style="edgeStyle=orthogonalEdgeStyle;rounded=0;orthogonalLoop=1;jettySize=auto;html=1;" edge="1" parent="1" source="3unbCcVTycQeQUq4H99n-2" target="3unbCcVTycQeQUq4H99n-3">
          <mxGeometry relative="1" as="geometry" />
        </mxCell>
        <mxCell id="3unbCcVTycQeQUq4H99n-2" value="Nhập vào&amp;nbsp;&lt;div&gt;2 số n&amp;nbsp;&lt;/div&gt;" style="shape=parallelogram;html=1;strokeWidth=2;perimeter=parallelogramPerimeter;whiteSpace=wrap;rounded=1;arcSize=12;size=0.23;" vertex="1" parent="1">
          <mxGeometry x="356" y="150" width="116" height="60" as="geometry" />
        </mxCell>
        <mxCell id="3unbCcVTycQeQUq4H99n-7" style="edgeStyle=orthogonalEdgeStyle;rounded=0;orthogonalLoop=1;jettySize=auto;html=1;entryX=0.5;entryY=0;entryDx=0;entryDy=0;" edge="1" parent="1" source="3unbCcVTycQeQUq4H99n-3" target="3unbCcVTycQeQUq4H99n-5">
          <mxGeometry relative="1" as="geometry" />
        </mxCell>
        <mxCell id="3unbCcVTycQeQUq4H99n-3" value="n1 &amp;lt; n2" style="strokeWidth=2;html=1;shape=mxgraph.flowchart.decision;whiteSpace=wrap;" vertex="1" parent="1">
          <mxGeometry x="364" y="240" width="100" height="100" as="geometry" />
        </mxCell>
        <mxCell id="3unbCcVTycQeQUq4H99n-5" value="n1 lớn&amp;nbsp;&lt;div&gt;hơn n2&lt;/div&gt;" style="shape=parallelogram;html=1;strokeWidth=2;perimeter=parallelogramPerimeter;whiteSpace=wrap;rounded=1;arcSize=12;size=0.23;" vertex="1" parent="1">
          <mxGeometry x="256" y="400" width="100" height="60" as="geometry" />
        </mxCell>
        <mxCell id="3unbCcVTycQeQUq4H99n-6" value="n2 lớn&amp;nbsp;&lt;div&gt;hơn n1&lt;/div&gt;" style="shape=parallelogram;html=1;strokeWidth=2;perimeter=parallelogramPerimeter;whiteSpace=wrap;rounded=1;arcSize=12;size=0.23;" vertex="1" parent="1">
          <mxGeometry x="490" y="400" width="100" height="60" as="geometry" />
        </mxCell>
        <mxCell id="3unbCcVTycQeQUq4H99n-8" style="edgeStyle=orthogonalEdgeStyle;rounded=0;orthogonalLoop=1;jettySize=auto;html=1;" edge="1" parent="1" source="3unbCcVTycQeQUq4H99n-3">
          <mxGeometry relative="1" as="geometry">
            <mxPoint x="550" y="400" as="targetPoint" />
          </mxGeometry>
        </mxCell>
        <mxCell id="3unbCcVTycQeQUq4H99n-11" value="false" style="text;html=1;align=center;verticalAlign=middle;resizable=0;points=[];autosize=1;strokeColor=none;fillColor=none;" vertex="1" parent="1">
          <mxGeometry x="325" y="270" width="50" height="30" as="geometry" />
        </mxCell>
        <mxCell id="3unbCcVTycQeQUq4H99n-13" value="true" style="text;html=1;align=center;verticalAlign=middle;resizable=0;points=[];autosize=1;strokeColor=none;fillColor=none;" vertex="1" parent="1">
          <mxGeometry x="460" y="270" width="40" height="30" as="geometry" />
        </mxCell>
        <mxCell id="3unbCcVTycQeQUq4H99n-14" value="END" style="strokeWidth=2;html=1;shape=mxgraph.flowchart.start_1;whiteSpace=wrap;" vertex="1" parent="1">
          <mxGeometry x="364" y="500" width="100" height="60" as="geometry" />
        </mxCell>
        <mxCell id="3unbCcVTycQeQUq4H99n-15" style="edgeStyle=orthogonalEdgeStyle;rounded=0;orthogonalLoop=1;jettySize=auto;html=1;entryX=0.5;entryY=0;entryDx=0;entryDy=0;entryPerimeter=0;" edge="1" parent="1" source="3unbCcVTycQeQUq4H99n-5" target="3unbCcVTycQeQUq4H99n-14">
          <mxGeometry relative="1" as="geometry" />
        </mxCell>
        <mxCell id="3unbCcVTycQeQUq4H99n-16" style="edgeStyle=orthogonalEdgeStyle;rounded=0;orthogonalLoop=1;jettySize=auto;html=1;entryX=0.5;entryY=0;entryDx=0;entryDy=0;entryPerimeter=0;" edge="1" parent="1" source="3unbCcVTycQeQUq4H99n-6" target="3unbCcVTycQeQUq4H99n-14">
          <mxGeometry relative="1" as="geometry" />
        </mxCell>
      </root>
    </mxGraphModel>
  </diagram>
</mxfile>
